<svg xmlns="http://www.w3.org/2000/svg" viewBox="0 0 48 48">
<g data-name="42-Education"><path d="M23 37h2v6h-2zM35 37h2v6h-2zM11 37h2v6h-2zM23 17h2v7h-2z"/><path d="M24 18a1 1 0 0 1-.388-.078l-19-8a1 1 0 0 1 0-1.844l19-8a1.013 1.013 0 0 1 .776 0l19 8a1 1 0 0 1 0 1.844l-19 8A1 1 0 0 1 24 18zM7.577 9 24 15.915 40.423 9 24 2.085z"/><path d="M10 11h2v15h-2zM36 11h2v15h-2zM42 23h-2a1 1 0 0 1-1-1v-6a1 1 0 0 1 1-1h2V9h2v12a1 1 0 0 1-.293.707l-1 1A1 1 0 0 1 42 23zm-1-2h.586l.414-.414V17h-1zM22 8h4v2h-4zM7 29h2v4H7z"/><path d="M42 34H3a1 1 0 0 1-1-1v-4a1 1 0 0 1 1-1h39a1.006 1.006 0 0 1 .555.168l3 2a1 1 0 0 1 0 1.664l-3 2A1.006 1.006 0 0 1 42 34zM4 32h37.7l1.5-1-1.5-1H4zM46 48H2a2 2 0 0 1-2-2v-8a2 2 0 0 1 2-2h44a2 2 0 0 1 2 2v8a2 2 0 0 1-2 2zM2 38v8h44v-8z"/><path d="M29 37h2v5h-2zM17 37h2v5h-2zM5 37h2v5H5zM41 37h2v5h-2z"/></g></svg>